<?xml version="1.0" encoding="utf-8"?>
<!-- Generator: Adobe Illustrator 24.3.0, SVG Export Plug-In . SVG Version: 6.00 Build 0)  -->
<svg version="1.1" id="Layer_1" xmlns="http://www.w3.org/2000/svg" xmlns:xlink="http://www.w3.org/1999/xlink" x="0px" y="0px"
	 viewBox="0 0 6000 6000" style="enable-background:new 0 0 6000 6000;" xml:space="preserve">
<style type="text/css">
	.st0{fill-rule:evenodd;clip-rule:evenodd;fill:url(#SVGID_1_);}
	.st1{fill-rule:evenodd;clip-rule:evenodd;fill:url(#SVGID_2_);}
	.st2{fill-rule:evenodd;clip-rule:evenodd;fill:url(#SVGID_3_);}
	.st3{fill-rule:evenodd;clip-rule:evenodd;fill:url(#SVGID_4_);}
	.st4{fill-rule:evenodd;clip-rule:evenodd;fill:url(#SVGID_5_);}
</style>
<image style="display:none;overflow:visible;" width="1600" height="1600" xlink:href="4BE5D7A2.jpg"  transform="matrix(1.1853 0 0 1.1853 2051.7456 2094.0088)">
</image>
<g>
	<linearGradient id="SVGID_1_" gradientUnits="userSpaceOnUse" x1="1161.3723" y1="3603.0564" x2="5097.2026" y2="3603.0564">
		<stop  offset="0" style="stop-color:#1D0D3E"/>
		<stop  offset="0.9926" style="stop-color:#800B4F"/>
	</linearGradient>
	<path class="st0" d="M5043,5093.6c-63.9-56.4-127.7-112.7-191.6-169.1L4409,4492.4c-109.1-104.9-218.2-209.8-327.3-314.6
		c-20.2-7.7-60.9-19.8-110.4-10.8c-22.8,4.1-41.4,11.7-55.2,18.7c-58.1-56.1-116.2-112.3-174.3-168.4
		c191.6-245.8,305.7-555,305.7-890.9c0-590.1-352.3-1097.8-858-1324.4c-121.7-54.6-252.3-92.9-389.1-112.1
		c-92.7-13-166.7-14.3-203.7-14.2c-91.4,0.3-222,9.9-375.7,52.8c64.4,40.4,168,102.8,300.1,170.4
		c394.1,201.9,515.9,181.5,732.4,349.4c69.4,53.8,226.3,178.4,333.2,400.3c18,37.4,108.2,230.3,106.6,495
		c-1,164.2-36.9,287.4-51.1,332.1c-33.2,104.8-81.7,202.8-142.9,291.3v0c-44.6,64.5-95.8,124-152.8,177.5
		c-196.4,184.4-460.7,297.3-751.4,297.3c-606.6,0-1098.3-491.7-1098.3-1098.3c0-308.9,127.5-588,332.8-787.5
		c-44.6-33.6-91.5-72.7-138.5-118.3c-47.2-45.6-87.9-91.2-122.9-134.7c-98.9,116.4-243.2,316.4-331.7,598.7
		c-26.9,85.8-71.4,231.3-74.9,425.9c-8.3,462.1,222.2,788.8,287.5,878.6c50.6,69.6,153.7,208.8,335.6,334
		c339.2,233.3,690.1,237.1,812.1,236.7c206.3-0.6,363.1-43.9,432.4-65.5c209.2-65.2,398-176.6,554.7-322.1l166,171.4
		c-8.5,12.6-27.2,44.3-27,88c0.1,28.1,7.9,50.1,13.8,63.1c96.4,104.7,192.8,209.3,289.2,314l393.3,401.5
		c78.1,82.6,156.2,165.1,234.3,247.7c23.8,17.3,82,54.4,162.7,55.2c145.8,1.5,229.3-116.8,233.7-123.2
		c44.9-66,47.1-132.5,47.3-148.9C5098.1,5172.4,5057.1,5112.6,5043,5093.6z"/>
	<linearGradient id="SVGID_2_" gradientUnits="userSpaceOnUse" x1="2317.4509" y1="3176.4404" x2="3442.0874" y2="3176.4404">
		<stop  offset="0" style="stop-color:#1D0D3E"/>
		<stop  offset="1" style="stop-color:#800B4F"/>
	</linearGradient>
	<path class="st1" d="M2567.8,3714.7c91,0,176.8-22.6,252-62.6h0c170.3-90.3,286.3-269.5,286.3-475.7
		c0-138.7-52.5-265.2-138.7-360.6c-98.5-109.1-241-177.6-399.6-177.6c-297.3,0-538.3,241-538.3,538.3S2270.6,3714.7,2567.8,3714.7z
		 M2567.2,2780.8c96,0,184.1,33.6,253.3,89.7c91.1,73.8,149.3,186.6,149.3,312.9c0,172.5-108.5,319.7-260.9,377
		c-44.1,16.6-91.8,25.7-141.7,25.7c-222.4,0-402.6-180.3-402.6-402.6C2164.6,2961.1,2344.9,2780.8,2567.2,2780.8z"/>
	<linearGradient id="SVGID_3_" gradientUnits="userSpaceOnUse" x1="2374.2822" y1="3177.9397" x2="3021.1396" y2="3177.9397">
		<stop  offset="0" style="stop-color:#1D0D3E"/>
		<stop  offset="0.8681" style="stop-color:#800B4F"/>
	</linearGradient>
	<path class="st2" d="M2576.4,3380c12.4,0,24.5-1.1,36.3-3.2c94.3-17.1,165.8-99.7,165.8-198.9c0-75.9-41.9-142.1-103.8-176.6
		c-29.1-16.2-62.6-25.5-98.3-25.5c-111.6,0-202.1,90.5-202.1,202.1C2374.3,3289.5,2464.7,3380,2576.4,3380z"/>
	<linearGradient id="SVGID_4_" gradientUnits="userSpaceOnUse" x1="1516.5714" y1="1884.3298" x2="4640.5542" y2="1884.3298">
		<stop  offset="0.1439" style="stop-color:#1D0D3E"/>
		<stop  offset="0.9926" style="stop-color:#800B4F"/>
	</linearGradient>
	<path class="st3" d="M1962.3,2244.9c162.6,119.8,348.8,205.9,538.9,275.3c198.8,72.6,404.8,128.6,592.7,226
		c187.9,97.5,360.6,244.3,435.9,442.1c40.8-268-59.7-553.5-259.4-736.8c-166.2-152.6-385.6-230.5-596.4-311.2
		c-210.8-80.6-427.4-173.5-573.9-345.1s-199-444.6-59.2-621.9c80.8-102.4,211.9-156.3,342-166.4c100-7.8,206.7,10.2,284.1,74
		c80,66,120.2,172.9,205.6,231.8c64.7,44.6,146.1,55.2,224.2,64.6c179.5,21.5,359.1,43,538.6,64.6c27.4,3.3,58.7,6.6,89.5-10.2
		c10.5-5.7,46.8-27.8,80.3-66c8.2-9.3,14.9-18.1,26.9-20.4c16.3-3,28.3,8.5,52.2,22.2c0,0,10.5,6.1,58.3,25.7
		c47.4,19.5,66.8,12.7,107.8,23.7c49.4,13.2,81.1,39,124.2,74.3c26.5,21.6,61.8,54.9,95.3,102.5c0.4-20.1-1.5-56.8-19.7-97.9
		c-18.5-41.9-45.2-68.3-60.5-81.5c8.9,1.1,58.2,6.6,101-28c32.7-26.5,42.3-60.9,45-72.5c-60.5,20.3-112,27.8-147.3,30.8
		c-21.3,1.8-133,10.2-248.4-39.4c-36.5-15.7-56.7-30-62.4-51.3c-7.8-29.2,18.1-47.8,27.3-81c5.9-21.4,23.2-80.9-89.3-189.3
		c-60.7-58.5-121.5-116.9-182.5-175.1c-70.9-67.7-144-136.6-233.8-176c-188-82.5-403-45.3-459.5-35.3
		c-16.5,2.9-59.9,11.3-120.7,16.6c-81.8,7.1-143.2,4.3-162.8,3.5c-171.8-7-291.2-11.9-414.6,11.6
		c-259.5,49.4-429.2,203.8-468.6,241.2c-52.5,49.8-147.8,142.3-207,295.8c-79.8,206.7-42.6,390.7-25.6,469.3
		c67.1,311,282.8,496.7,360.8,562C1924.3,2216.7,1941.7,2229.8,1962.3,2244.9z M3367.8,891.4c46.3,0,83.8,37.5,83.8,83.8
		c0,46.3-37.5,83.8-83.8,83.8c-46.3,0-83.8-37.5-83.8-83.8C3284,928.9,3321.5,891.4,3367.8,891.4z M2132.1,1812.9
		c-5.3-6.1-10.6-12.4-15.9-18.9C2121.5,1800.5,2126.8,1806.8,2132.1,1812.9z"/>
	<linearGradient id="SVGID_5_" gradientUnits="userSpaceOnUse" x1="1701.6388" y1="3235.4236" x2="4030.7817" y2="3235.4236">
		<stop  offset="0.1336" style="stop-color:#1D0D3E"/>
		<stop  offset="0.9757" style="stop-color:#800B4F"/>
	</linearGradient>
	<path class="st4" d="M3461.7,3152.4L3461.7,3152.4c-16.8-30.2-48.1-48.8-81-47.7c-38.9,1.2-62.3,29.2-65.9,33.6
		c-0.9,21.8-3,53-8.5,90c-11.9,79.8-49.4,309.5-243.2,486.2c-109.4,99.8-223.6,141.7-276.1,158c-68.4,21.1-141,32.5-216.4,32.5
		c-75.3,0-148-11.4-216.4-32.5l-1.4-1.2c-205.5-64-371.9-216.7-454.5-413.3l-3.2-2.9c-36.2-86.7-56.2-181.9-56.2-281.7
		c0-174.9,61.4-335.4,163.7-461.3c70.4-86.5,160.2-156.7,262.7-203.8c-7-12.5-22-35.4-49.8-53.8c-34.8-23-69.4-25.4-83.8-25.6
		c-63.1,36.1-146.9,94.4-225.8,185.3c-110,126.8-153.4,251.4-164.6,285.7c0,0-39.7,127.7-39.7,262.1c0,486.1,394,880.1,880.1,880.1
		c318.2,0,596.9-168.8,751.5-421.8c7.8-12.8,15.3-25.8,22.5-39c15.4-28.4,29.3-57.7,41.5-87.8c2.7-6.7,20.2-49.9,33.8-100
		C3457.7,3295.4,3461.5,3201.7,3461.7,3152.4z"/>
</g>
</svg>
